<svg width="150" height="24" fill="none" xmlns="http://www.w3.org/2000/svg"><path d="M5.417 11.985l-2.71 2.708L0 11.985l2.707-2.707 2.71 2.707zm6.568-6.573l4.64 4.641 2.707-2.707L11.985 0 4.64 7.346l2.707 2.707 4.64-4.641zm9.281 3.866l-2.707 2.707 2.707 2.708 2.705-2.708-2.705-2.707zm-9.28 9.28l-4.64-4.638-2.707 2.705 7.346 7.346 7.347-7.346-2.707-2.705-4.64 4.639zm0-3.865l2.707-2.708-2.708-2.707-2.707 2.707 2.707 2.708zm28.57.26v-.038c0-1.766-.937-2.649-2.46-3.23.937-.526 1.729-1.353 1.729-2.835v-.038c0-2.065-1.654-3.4-4.34-3.4h-6.1v13.147h6.253c2.967 0 4.92-1.201 4.92-3.607h-.002zm-3.605-5.62c0 .976-.807 1.39-2.086 1.39h-2.663V7.948h2.855c1.22 0 1.897.487 1.897 1.351l-.003.033zm.731 5.259c0 .976-.768 1.426-2.047 1.426h-3.433V13.13h3.342c1.485 0 2.14.546 2.14 1.429l-.002.033zm8.95 3.967V5.412h-2.901v13.147h2.901zm15.548 0V5.412h-2.864v8.096l-6.162-8.096H50.49v13.147h2.855V10.2l6.365 8.358h2.47zm16.02 0l-5.644-13.24H69.89l-5.634 13.24h2.948l1.208-2.949h5.557l1.204 2.949H78.2zm-5.26-5.503h-3.5l1.746-4.262 1.754 4.262zm19.046 5.503V5.412h-2.864v8.096l-6.161-8.096h-2.667v13.147h2.854V10.2l6.368 8.358h2.47zm14.929-2.122l-1.84-1.86c-1.033.938-1.953 1.54-3.454 1.54-2.253 0-3.813-1.874-3.813-4.132v-.037c0-2.253 1.597-4.094 3.813-4.094 1.313 0 2.341.562 3.36 1.483l1.836-2.122c-1.22-1.201-2.705-2.028-5.182-2.028-4.038 0-6.855 3.06-6.855 6.791v.038c0 3.775 2.873 6.76 6.742 6.76 2.529.008 4.033-.894 5.384-2.339h.009zm12.339 2.122v-2.576h-7.144v-2.766h6.198v-2.576h-6.198V7.986h7.041V5.41h-9.915v13.146l10.018.003z" fill="#F0B90B"/><path fill-rule="evenodd" clip-rule="evenodd" d="M122.704 18.561v-1.974h1.73v1.974h-1.73zm15.217-5.618c0 3.834-2.199 5.824-5.487 5.824-3.288 0-5.477-1.99-5.477-5.711V5.407h1.484v7.555c0 2.836 1.501 4.433 4.021 4.433 2.424 0 3.965-1.464 3.965-4.34V5.408h1.485l.009 7.536zm7.794-1.674c2.931.639 4.285 1.712 4.285 3.747 0 2.274-1.873 3.746-4.492 3.746-2.086 0-3.796-.702-5.386-2.107l.932-1.096c1.373 1.241 2.686 1.86 4.511 1.86 1.765-.005 2.936-.923 2.936-2.258 0-1.241-.658-1.937-3.421-2.52-3.026-.658-4.417-1.64-4.417-3.815 0-2.107 1.825-3.606 4.323-3.606a6.853 6.853 0 0 1 4.623 1.616l-.874 1.145c-1.222-.995-2.442-1.429-3.796-1.429-1.709 0-2.81.937-2.81 2.143.014 1.26.691 1.946 3.586 2.574z" fill="#F0B90B"/></svg>